<?xml version="1.0" encoding="iso-8859-1"?>
<!-- Generator: Adobe Illustrator 19.0.0, SVG Export Plug-In . SVG Version: 6.00 Build 0)  -->
<svg version="1.1" id="Capa_1" xmlns="http://www.w3.org/2000/svg" xmlns:xlink="http://www.w3.org/1999/xlink" x="0px" y="0px"
	 viewBox="0 0 280 280" style="enable-background:new 0 0 280 280;" xml:space="preserve">
<g id="XMLID_2033_">
	<path id="XMLID_2034_" style="fill:#50412E;" d="M160,56.428V45c0-11.046-8.954-20-20-20s-20,8.954-20,20v11.428
		C126.533,55.494,133.209,55,140,55S153.467,55.494,160,56.428z"/>
	<path id="XMLID_2035_" style="fill:#FF9811;" d="M140,195h110h30c0-70.529-52.155-128.865-120-138.572
		C153.467,55.494,146.791,55,140,55V195z"/>
	<path id="XMLID_2036_" style="fill:#FFDA44;" d="M140,55c-6.791,0-13.467,0.494-20,1.428C52.155,66.135,0,124.471,0,195h30h110V55z
		"/>
	<polygon id="XMLID_2037_" style="fill:#50412E;" points="250,225 250,195 140,195 30,195 30,225 140,225 	"/>
	<polygon id="XMLID_2038_" style="fill:#FFDA44;" points="30,225 0,225 0,255 140,255 140,225 	"/>
	<polygon id="XMLID_2039_" style="fill:#FF9811;" points="140,225 140,255 280,255 280,225 250,225 	"/>
</g>
<g>
</g>
<g>
</g>
<g>
</g>
<g>
</g>
<g>
</g>
<g>
</g>
<g>
</g>
<g>
</g>
<g>
</g>
<g>
</g>
<g>
</g>
<g>
</g>
<g>
</g>
<g>
</g>
<g>
</g>
</svg>
