<?xml version="1.0" encoding="iso-8859-1"?>
<!-- Generator: Adobe Illustrator 19.0.0, SVG Export Plug-In . SVG Version: 6.00 Build 0)  -->
<svg version="1.1" id="Layer_1" xmlns="http://www.w3.org/2000/svg" xmlns:xlink="http://www.w3.org/1999/xlink" x="0px" y="0px"
	 viewBox="0 0 511.999 511.999" style="enable-background:new 0 0 511.999 511.999;" xml:space="preserve">
<polygon style="fill:#FFE29E;" points="222.733,8.169 228.126,130.123 176.555,151.91 195.532,8.169 "/>
<polygon style="fill:#FFF1CF;" points="195.532,8.169 198.342,130.123 150.792,162.803 103.242,130.123 108.634,8.169 "/>
<path style="fill:#FFB751;" d="M234.139,266.543l-6.013-136.42h-29.783l-32.659,208.024c37.844,0,68.531-30.676,68.531-68.521
	C234.215,268.591,234.182,267.567,234.139,266.543z"/>
<path style="fill:#FFD764;" d="M201.491,266.543c0.033,1.024,0.044,2.048,0.044,3.083c0,37.844-16.057,68.521-35.851,68.521
	c-37.844,0-68.531-30.676-68.531-68.521c0-1.035,0.033-2.059,0.076-3.083l6.013-136.42h95.101L201.491,266.543z"/>
<g>
	<circle style="fill:#FFF1CF;" cx="176.574" cy="240.105" r="8.17"/>
	<circle style="fill:#FFF1CF;" cx="198.448" cy="199.08" r="8.17"/>
</g>
<polygon style="fill:#FFE29E;" points="403.369,8.169 408.762,130.123 357.191,151.91 376.168,8.169 "/>
<polygon style="fill:#FFF1CF;" points="376.168,8.169 378.979,130.123 331.428,162.803 283.878,130.123 289.27,8.169 "/>
<path style="fill:#FFB751;" d="M414.775,266.543l-6.013-136.42h-29.783L346.32,338.146c37.844,0,68.531-30.676,68.531-68.521
	C414.851,268.591,414.818,267.567,414.775,266.543z"/>
<path style="fill:#FFD764;" d="M382.127,266.543c0.033,1.024,0.044,2.048,0.044,3.083c0,37.844-16.057,68.521-35.851,68.521
	c-37.844,0-68.531-30.676-68.531-68.521c0-1.035,0.033-2.059,0.076-3.083l6.013-136.42h95.101L382.127,266.543z"/>
<g>
	<circle style="fill:#FFF1CF;" cx="346.318" cy="261.892" r="8.17"/>
	<circle style="fill:#FFF1CF;" cx="346.318" cy="162.804" r="8.17"/>
	<circle style="fill:#FFF1CF;" cx="379.085" cy="199.08" r="8.17"/>
</g>
<path d="M242.382,269.627c0-1.025-0.027-2.118-0.086-3.436l-11.4-258.379c-0.193-4.368-3.79-7.81-8.163-7.81H108.63
	c-4.373,0-7.97,3.442-8.163,7.81l-11.4,258.377c-0.059,1.319-0.086,2.412-0.086,3.437c0,39.533,30.065,72.168,68.53,76.26v128.563
	c-11.888,1.732-18.991,7.122-25.377,11.987c-6.763,5.153-12.104,9.223-23.644,9.223H97.597c-4.512,0-8.17,3.658-8.17,8.17
	s3.658,8.17,8.17,8.17h136.17c4.512,0,8.17-3.658,8.17-8.17s-3.658-8.17-8.17-8.17h-10.894c-11.54,0-16.882-4.07-23.645-9.223
	c-6.386-4.865-13.49-10.256-25.377-11.987V345.887C212.317,341.794,242.382,309.158,242.382,269.627z M105.322,269.627
	c0-0.91,0.029-1.814,0.07-2.716l11.056-250.568h98.469l4.66,105.615l-83.651-0.001c-4.512,0-8.17,3.658-8.17,8.17
	s3.658,8.17,8.17,8.17l84.372,0.001l5.674,128.614c0.04,0.901,0.07,1.804,0.07,2.714c0,33.282-27.077,60.36-60.36,60.36
	S105.322,302.909,105.322,269.627z M147.208,495.66c4.825-3.229,9.963-5.447,18.474-5.447c8.511,0,13.65,2.218,18.474,5.447H147.208
	z"/>
<path d="M132.559,207.243c0.123,0.005,0.245,0.008,0.366,0.008c4.347,0,7.962-3.425,8.156-7.81l1.6-36.272
	c0.199-4.508-3.294-8.324-7.802-8.522c-4.499-0.192-8.324,3.294-8.522,7.802l-1.6,36.272
	C124.558,203.228,128.052,207.043,132.559,207.243z"/>
<path d="M173.853,305.475c0-4.512-3.658-8.17-8.17-8.17c-15.262,0-27.679-12.417-27.679-27.679c0-0.425,0.02-0.846,0.038-1.268
	l1.6-36.27c0.199-4.508-3.294-8.324-7.802-8.522c-4.501-0.199-8.324,3.294-8.522,7.802l-1.6,36.268
	c-0.029,0.66-0.053,1.323-0.053,1.99c0,24.272,19.747,44.02,44.02,44.02C170.195,313.646,173.853,309.989,173.853,305.475z"/>
<path d="M313.196,207.24c0.123,0.005,0.245,0.008,0.366,0.008c4.347,0,7.962-3.425,8.156-7.81l1.6-36.272
	c0.199-4.508-3.294-8.324-7.802-8.522c-4.5-0.19-8.324,3.294-8.522,7.802l-1.6,36.272
	C305.194,203.226,308.687,207.041,313.196,207.24z"/>
<path d="M354.488,305.474c0-4.512-3.658-8.17-8.17-8.17c-15.262,0-27.679-12.417-27.679-27.679c0-0.425,0.02-0.846,0.038-1.268
	l1.6-36.27c0.199-4.508-3.294-8.324-7.802-8.522c-4.502-0.197-8.324,3.294-8.522,7.802l-1.6,36.268
	c-0.029,0.66-0.053,1.323-0.053,1.99c0,24.272,19.747,44.02,44.02,44.02C350.83,313.644,354.488,309.986,354.488,305.474z"/>
<path d="M414.402,495.657h-10.894c-11.54,0-16.882-4.07-23.644-9.223c-6.386-4.865-13.49-10.256-25.377-11.987V345.885
	c38.464-4.093,68.53-36.728,68.53-76.26c0-1.025-0.027-2.118-0.086-3.436L411.532,7.81c-0.193-4.367-3.79-7.81-8.163-7.81H289.266
	c-4.373,0-7.97,3.442-8.163,7.81l-11.4,258.378c-0.059,1.319-0.086,2.412-0.086,3.437c0,39.533,30.065,72.168,68.53,76.26v128.563
	c-11.888,1.732-18.991,7.122-25.377,11.987c-6.763,5.153-12.104,9.223-23.644,9.223h-10.894c-4.512,0-8.17,3.658-8.17,8.17
	c0,4.512,3.658,8.17,8.17,8.17h136.17c4.512,0,8.17-3.658,8.17-8.17C422.572,499.316,418.914,495.657,414.402,495.657z
	 M285.958,269.625c0-0.91,0.029-1.814,0.07-2.716L297.084,16.34h98.469l4.66,105.615l-83.651-0.001c-4.512,0-8.17,3.658-8.17,8.17
	s3.658,8.17,8.17,8.17l84.372,0.001l5.674,128.614c0.04,0.901,0.07,1.804,0.07,2.714c0,33.282-27.077,60.36-60.36,60.36
	S285.958,302.907,285.958,269.625z M346.318,490.211c8.511,0,13.65,2.218,18.474,5.447h-36.949
	C332.669,492.429,337.806,490.211,346.318,490.211z"/>
<g>
</g>
<g>
</g>
<g>
</g>
<g>
</g>
<g>
</g>
<g>
</g>
<g>
</g>
<g>
</g>
<g>
</g>
<g>
</g>
<g>
</g>
<g>
</g>
<g>
</g>
<g>
</g>
<g>
</g>
</svg>
