<svg id="Capa_1" enable-background="new 0 0 512 512" height="512" viewBox="0 0 512 512" width="512" xmlns="http://www.w3.org/2000/svg"><g><g><path clip-rule="evenodd" d="m219.461 180.128c-12.995 10.008-24.764 22.065-34.781 36.083-41.527 58.06-41.702 133.299-6.249 190.423 0 .029.029.059.029.088 10.572 17.032 24.326 32.454 41.089 45.33.058.029.117.088.175.117 1.402 1.112 2.862 2.166 4.322 3.219 76.775 55.163 183.629 37.488 238.677-39.448 49.47-69.152 40.242-162.651-17.872-220.916-6.571-6.555-13.725-12.671-21.493-18.261-7.768-5.589-15.857-10.418-24.18-14.515-38.665-19.139-82.207-22.358-122.01-11.12-.263.088-1.781.38-2.044.439l1.11 33.42 40.067 12.086c26.37-1.668 53.558 5.443 76.716 22.095 53.412 38.366 65.678 112.843 27.392 166.368-33.73 47.203-95.494 62.333-146.249 38.98-6.833-3.131-13.463-6.965-19.77-11.53-9.053-6.467-16.879-13.988-23.538-22.27-32.591-40.677-35.686-99.616-3.855-144.098 8.907-12.467 19.77-22.709 31.89-30.581.701-.468 4.322-2.458 5.052-2.926l-9.783-32.22-33.584-1.697c-.264.173-.848.729-1.111.934z" fill="#fece85" fill-rule="evenodd"/></g><g><path clip-rule="evenodd" d="m131.501 24.5c-5.081 0-5.49 2.312-8.323 6.526l-18.048 25.46c-2.774 4.39-2.716 5.502.496 9.979l37.322 52.061 27.509 17.734 28.648-17.734 37.351-52.061c3.183-4.477 3.271-5.589.496-9.979l-18.047-25.46c-2.833-4.214-3.242-6.526-8.323-6.526h-4.935-6.512-28.093-28.093-6.512z" fill="#2ed1e2" fill-rule="evenodd"/></g><g><path clip-rule="evenodd" d="m171.042 116.214c-9.579 0-18.953.79-28.093 2.312-81.097 13.403-142.949 84.018-142.949 169.09 0 94.67 76.57 171.401 171.042 171.401 16.909 0 33.058-2.4 48.506-6.965-16.763-12.876-30.517-28.299-41.089-45.33 0-.029-.029-.059-.029-.088-2.716.176-4.614.234-7.388.234-65.707 0-119.002-53.378-119.002-119.252 0-65.845 53.296-119.223 119.002-119.223 17.668 0 34.46 3.863 49.528 10.799 16.996 7.784 31.831 19.49 43.367 33.917 16.325 20.426 26.078 46.325 26.078 74.507 0 44.277-23.392 82.525-59.165 103.098 6.658 8.282 14.485 15.803 23.538 22.27 6.308 4.565 12.937 8.399 19.77 11.53 40.943-31.313 67.926-81.296 67.926-136.899 0-33.244-9.433-64.264-25.786-90.544-10.922-17.529-24.881-32.952-41.176-45.506-21.815-16.739-47.747-28.386-76.016-33.039-9.111-1.521-18.514-2.312-28.064-2.312z" fill="#fece85" fill-rule="evenodd"/></g><g><path clip-rule="evenodd" d="m399.118 98.129.058 64.118 13.667 29.586 32.007 3.19 60.596-20.514c5.198-1.756 5.899-2.634 6.191-7.814l.146-31.225c.146-5.063 1.168-7.199-2.979-10.184l-4.001-2.868-5.286-3.804-22.837-16.388-22.837-16.417-5.315-3.804-4.001-2.868c-4.118-2.985-5.811-1.317-10.542.439l-29.464 10.154c-4.819 1.961-5.403 2.897-5.403 8.399z" fill="#2ed1e2" fill-rule="evenodd"/></g><g><path clip-rule="evenodd" d="m305.785 486.555c59.136 6.204 119.82-18.729 156.937-70.615 49.47-69.152 40.242-162.651-17.901-220.916-6.541-6.555-13.696-12.671-21.464-18.261-7.768-5.589-15.857-10.418-24.18-14.515-2.219-1.112-4.468-2.166-6.717-3.161 4.556 21.1 7.476 43.311 8.527 66.313 46.579 39.799 55.719 109.39 19.42 160.134-17.055 23.85-41.235 39.507-67.547 46.15-13.55 22.007-29.436 40.619-47.075 54.871z" fill="#fdb440" fill-rule="evenodd"/></g><g><path clip-rule="evenodd" d="m127.442 453.398c13.901 3.658 28.531 5.619 43.6 5.619 16.909 0 33.058-2.4 48.506-6.965-16.763-12.876-30.517-28.299-41.089-45.33 0-.029-.029-.059-.029-.088-2.716.176-4.614.234-7.388.234-3.212 0-6.395-.146-9.52-.38-9.987 17.733-21.464 33.536-34.08 46.91zm73.446-281.23c6.804 1.756 13.404 4.126 19.683 7.023 16.996 7.784 31.831 19.49 43.367 33.917 16.325 20.426 26.078 46.325 26.078 74.507 0 44.277-23.392 82.525-59.165 103.098 6.658 8.282 14.485 15.803 23.538 22.27 6.308 4.565 12.937 8.399 19.77 11.53 40.943-31.313 67.926-81.296 67.926-136.899 0-33.244-9.433-64.264-25.786-90.544-10.922-17.529-24.881-32.952-41.176-45.506-21.815-16.739-47.747-28.386-76.016-33.039-3.271-.556-6.571-.995-9.929-1.346 5.11 17.443 9.082 35.85 11.71 54.989z" fill="#fdb440" fill-rule="evenodd"/></g><g><path clip-rule="evenodd" d="m123.179 31.026-18.048 25.431v.029c-.788 1.258-1.373 2.253-1.694 3.161h135.21c-.321-.907-.905-1.902-1.694-3.161l-18.047-25.46c-2.833-4.214-3.242-6.526-8.323-6.526h-4.935-6.512-28.093-28.093-6.512-4.935c-3.271 0-4.614.966-5.928 2.78-.701.995-1.402 2.224-2.395 3.717v.029z" fill="#99e6fc" fill-rule="evenodd"/></g><g><path clip-rule="evenodd" d="m401.309 91.31 105.511 82.701c1.869-.702 2.979-1.317 3.68-2.283.759-1.083.993-2.575 1.139-5.033l.146-31.225c.146-5.063 1.168-7.199-2.979-10.184l-4.001-2.868-5.286-3.804-22.837-16.388-22.837-16.417-5.315-3.804-4.001-2.868c-4.118-2.985-5.811-1.317-10.542.439l-29.466 10.154c-1.402.556-2.453 1.054-3.212 1.58z" fill="#99e6fc" fill-rule="evenodd"/></g><g><path clip-rule="evenodd" d="m180.592 24.5 16.996 26.192c2.365 4.097 2.657 5.589.73 8.955h40.329c-.321-.907-.905-1.902-1.694-3.161l-18.047-25.46c-2.833-4.214-3.242-6.526-8.323-6.526h-4.935-6.512z" fill="#2ed1e2" fill-rule="evenodd"/></g><g><path clip-rule="evenodd" d="m197.091 61.607-36.007 54.871c3.3-.176 6.629-.263 9.958-.263 9.579 0 18.953.761 28.093 2.283l37.322-52.032s0 0 0-.029c.029-.029.088-.088.117-.146 2.19-3.073 2.833-4.536 2.073-6.643h-40.329c-.321.584-.73 1.228-1.227 1.959z" fill="#00b1cd" fill-rule="evenodd"/></g><g><path clip-rule="evenodd" d="m423.357 176.762c7.768 5.56 14.952 11.676 21.493 18.261l60.596-20.514c.496-.176.964-.351 1.373-.497l-26.662-20.895c-.759.351-1.723.732-2.92 1.112l-57.997 19.636c1.372.937 2.744 1.902 4.117 2.897z" fill="#00b1cd" fill-rule="evenodd"/></g><g><path clip-rule="evenodd" d="m483.457 146.415c-.234 4.009-.701 5.443-3.3 6.701l26.662 20.895c1.84-.702 2.949-1.317 3.65-2.253l.029-.029c.759-1.083.993-2.575 1.139-5.033l.146-31.225c.146-5.063 1.168-7.199-2.979-10.184l-4.001-2.868-5.286-3.804-18.281-13.11c3.417 2.722 2.482 4.887 2.365 9.687z" fill="#2ed1e2" fill-rule="evenodd"/></g></g></svg>